<?xml version="1.0" encoding="UTF-8" standalone="no"?>
<!-- Created with Inkscape (http://www.inkscape.org/) -->

<svg
   width="20.000013"
   height="19.999899"
   viewBox="0 0 5.2916705 5.2916397"
   version="1.1"
   id="svg1"
   xmlns="http://www.w3.org/2000/svg"
   xmlns:svg="http://www.w3.org/2000/svg">
  <defs
     id="defs1" />
  <g
     id="layer1"
     transform="translate(-111.06922,-133.16145)">
    <path
       id="path1"
       style="fill:#0000ff;stroke-width:0"
       d="m 113.71506,133.16145 a 2.6458335,2.6458335 0 0 0 -2.64584,2.64583 2.6458335,2.6458335 0 0 0 2.10789,2.59054 v -2.26601 h -0.57206 v -0.59842 h 0.57206 v -0.21652 c 0,-0.24188 0.0344,-0.42244 0.10283,-0.54157 0.0709,-0.11913 0.19911,-0.21538 0.38499,-0.28939 0.18832,-0.0758 0.42595,-0.11369 0.7121,-0.11369 0.29349,0 0.5807,0.0322 0.86196,0.0972 l -0.13952,0.53071 c -0.16387,-0.0289 -0.32172,-0.0434 -0.47336,-0.0434 -0.14919,0 -0.25642,0.0262 -0.32246,0.0785 -0.0636,0.0506 -0.0956,0.1489 -0.0956,0.29508 v 0.20308 h 0.7705 v 0.59842 h -0.7705 v 2.27479 a 2.6458335,2.6458335 0 0 0 2.15284,-2.59932 2.6458335,2.6458335 0 0 0 -2.64583,-2.64583 z m -0.47956,5.24774 a 2.6458335,2.6458335 0 0 0 0.47956,0.0439 2.6458335,2.6458335 0 0 0 0.47955,-0.0439 z" />
  </g>
</svg>
